<?xml version="1.0" encoding="utf-8"?>
<!-- Generator: Adobe Adobe Illustrator 29.2.0, SVG Export Plug-In . SVG Version: 6.00 Build 0)  -->
<svg version="1.1" id="Layer_1" xmlns="http://www.w3.org/2000/svg" xmlns:xlink="http://www.w3.org/1999/xlink" x="0px" y="0px"
	 viewBox="0 0 200 200" style="enable-background:new 0 0 200 200;" xml:space="preserve">
<style type="text/css">
	.st0{fill:#28B45E;}
</style>
<path class="st0" d="M171.43,0H28.57C12.79,0,0,12.79,0,28.57v142.86C0,187.21,12.79,200,28.57,200h142.86
	c15.78,0,28.57-12.79,28.57-28.57V28.57C200,12.79,187.21,0,171.43,0z M164.29,107.14h-47.04l33.26,33.26
	c2.79,2.79,2.79,7.31,0,10.1c-2.79,2.79-7.31,2.79-10.1,0l-33.26-33.26v47.04c0,3.95-3.2,7.14-7.14,7.14s-7.14-3.2-7.14-7.14v-47.04
	l-33.26,33.26c-2.79,2.79-7.31,2.79-10.1,0c-2.79-2.79-2.79-7.31,0-10.1l33.26-33.26H35.71c-3.95,0-7.14-3.2-7.14-7.14
	c0-3.95,3.2-7.14,7.14-7.14h47.04L49.49,59.59c-2.79-2.79-2.79-7.31,0-10.1c2.79-2.79,7.31-2.79,10.1,0l33.26,33.26V35.71
	c0-3.95,3.2-7.14,7.14-7.14s7.14,3.2,7.14,7.14v47.04l33.26-33.26c2.79-2.79,7.31-2.79,10.1,0c2.79,2.79,2.79,7.31,0,10.1
	l-33.26,33.26h47.04c3.95,0,7.14,3.2,7.14,7.14C171.43,103.95,168.23,107.14,164.29,107.14z"/>
</svg>
